<?xml version="1.0" standalone="no"?>
<!DOCTYPE svg PUBLIC "-//W3C//DTD SVG 20010904//EN"
 "http://www.w3.org/TR/2001/REC-SVG-20010904/DTD/svg10.dtd">
<svg version="1.0" xmlns="http://www.w3.org/2000/svg"
 width="512.000000pt" height="512.000000pt" viewBox="0 0 512.000000 512.000000"
 preserveAspectRatio="xMidYMid meet">

<g transform="translate(0.000000,512.000000) scale(0.100000,-0.100000)"
fill="#000000" stroke="none">
<path d="M2140 4864 c-144 -39 -247 -144 -285 -292 -13 -51 -16 -105 -13 -270
3 -190 5 -210 25 -247 46 -86 118 -129 213 -129 95 0 167 43 213 129 19 35 22
60 25 193 l4 152 1039 0 1039 0 0 -1840 0 -1840 -1039 0 -1039 0 -4 153 c-3
132 -6 157 -25 192 -46 86 -118 129 -213 129 -95 0 -167 -43 -213 -129 -21
-38 -22 -53 -22 -275 0 -221 1 -238 23 -290 33 -81 85 -146 152 -189 108 -70
28 -66 1350 -66 l1195 0 55 23 c117 48 208 146 241 259 21 72 21 3994 0 4066
-33 113 -124 211 -241 259 l-55 23 -1185 2 c-1020 2 -1193 0 -1240 -13z"/>
<path d="M1290 3685 c-46 -21 -994 -966 -1023 -1020 -29 -55 -29 -155 0 -210
12 -23 228 -246 510 -526 388 -387 496 -489 526 -499 22 -7 68 -10 103 -8 50
3 72 10 106 34 69 48 101 103 106 178 7 113 7 114 -291 413 l-271 273 1345 2
c1289 3 1345 4 1379 22 90 48 134 119 134 216 0 95 -43 167 -129 213 l-40 22
-1344 3 -1345 2 271 273 c298 299 298 300 291 413 -5 75 -37 130 -106 179 -37
25 -54 30 -115 32 -49 2 -83 -2 -107 -12z"/>
</g>
</svg>
