<?xml version="1.0" standalone="no"?>
<!DOCTYPE svg PUBLIC "-//W3C//DTD SVG 20010904//EN"
 "http://www.w3.org/TR/2001/REC-SVG-20010904/DTD/svg10.dtd">
<svg version="1.0" xmlns="http://www.w3.org/2000/svg"
 width="512.000000pt" height="512.000000pt" viewBox="0 0 512.000000 512.000000"
 preserveAspectRatio="xMidYMid meet">

<g transform="translate(0.000000,512.000000) scale(0.100000,-0.100000)"
fill="#000000" stroke="none">
<path d="M2272 4847 c-149 -149 -272 -277 -272 -282 0 -5 46 -56 102 -112
l103 -103 97 97 98 98 0 -321 0 -321 -77 -13 c-173 -27 -366 -105 -525 -212
l-96 -65 -239 239 -238 238 148 0 147 0 0 150 0 150 -400 0 -400 0 0 -390 0
-390 150 0 150 0 0 132 0 133 236 -236 236 -236 -57 -84 c-105 -155 -188 -361
-215 -531 l-13 -78 -316 0 -316 0 100 100 100 100 -108 108 -107 107 -280
-280 -280 -281 270 -272 c149 -149 274 -272 278 -272 3 0 53 46 109 102 l103
103 -92 92 -93 93 316 0 315 0 17 -89 c53 -282 170 -505 372 -706 l110 -110
-106 -105 c-160 -158 -268 -332 -334 -541 -52 -164 -57 -204 -62 -541 l-5
-318 1352 0 1352 0 -5 318 c-4 230 -9 336 -20 387 -61 281 -197 528 -391 712
l-91 86 110 111 c202 204 319 426 372 707 l17 89 325 0 326 0 -93 -93 -92 -92
103 -103 c56 -56 106 -102 109 -102 4 0 129 123 278 272 l270 272 -280 281
-280 280 -107 -107 -108 -108 100 -100 100 -100 -326 0 -325 0 -18 96 c-34
180 -97 337 -201 496 l-67 101 236 236 236 236 0 -133 0 -132 150 0 150 0 0
390 0 390 -400 0 -400 0 0 -150 0 -150 147 0 148 0 -239 -239 -239 -239 -51
37 c-167 124 -398 219 -598 247 l-48 6 0 321 0 322 98 -98 97 -97 104 104 104
105 -273 280 c-150 155 -275 281 -279 281 -3 0 -129 -123 -279 -273z m518
-1265 c198 -52 365 -146 501 -281 135 -136 226 -298 281 -501 28 -101 30 -349
5 -458 -27 -115 -79 -243 -138 -337 -59 -95 -196 -243 -271 -294 l-47 -32
-118 40 c-182 62 -264 75 -448 76 -93 0 -191 -6 -235 -14 -69 -13 -232 -61
-306 -92 -28 -11 -34 -10 -80 21 -77 52 -214 199 -273 295 -59 94 -113 228
-139 340 -26 113 -22 347 7 459 109 419 448 730 866 796 93 14 308 4 395 -18z
m0 -2110 c272 -71 494 -229 640 -454 112 -173 159 -330 167 -560 l6 -158
-1053 0 -1053 0 6 158 c8 235 54 388 171 567 158 243 434 420 721 465 94 14
308 4 395 -18z"/>
<path d="M2395 3293 c-343 -73 -595 -384 -595 -733 0 -351 255 -662 602 -734
246 -51 499 26 677 207 138 140 205 289 218 487 27 425 -325 794 -754 789 -43
0 -109 -7 -148 -16z m247 -294 c87 -18 158 -58 223 -123 258 -259 118 -696
-244 -758 -141 -24 -281 22 -386 127 -178 177 -178 454 -1 630 111 111 258
155 408 124z"/>
</g>
</svg>
